<svg xmlns="http://www.w3.org/2000/svg" xmlns:xlink="http://www.w3.org/1999/xlink" width="150" height="128" viewBox="0 0 150 128">
  <defs>
    <path id="ace-logo-a" d="M42.9901068,128 C45.2047097,128 47.7155861,126.364325 48.6011378,124.340144 L73.4928053,67.4431645 C74.3770893,65.4218821 75.8047436,65.4189844 76.6843729,67.4431645 L101.40957,124.340144 C102.28794,126.361427 104.794052,128 107.009893,128 L146.990107,128 C149.20471,128 150.281747,126.358279 149.399361,124.341396 L96.6006393,3.65860417 C95.7166306,1.63801288 93.2035752,0 90.9999745,0 L59.0000255,0 C56.7908724,0 54.2817471,1.64172098 53.3993607,3.65860417 L0.600639326,124.341396 C-0.283369363,126.361987 0.794052452,128 3.00989318,128 L42.9901068,128 Z"/>
    <path id="ace-logo-d" d="M121.157895,59.7894737 L128.311653,76.1409211 L101.261371,123.999112 L89.9999992,98 C90.5522844,99.1045695 91.8030068,98.9293242 92.7940525,97.6079301 L121.157895,59.7894737 Z"/>
    <filter id="ace-logo-c" width="217.5%" height="170.1%" x="-58.7%" y="-35%" filterUnits="objectBoundingBox">
      <feMorphology in="SourceAlpha" operator="dilate" radius="2.5" result="shadowSpreadOuter1"/>
      <feOffset in="shadowSpreadOuter1" result="shadowOffsetOuter1"/>
      <feGaussianBlur in="shadowOffsetOuter1" result="shadowBlurOuter1" stdDeviation="5"/>
      <feColorMatrix in="shadowBlurOuter1" values="0 0 0 0 0   0 0 0 0 0   0 0 0 0 0  0 0 0 0.2 0"/>
    </filter>
    <path id="ace-logo-e" d="M0.749728804,26.9995189 L11.4928053,2.44316451 C12.3770893,0.421882089 13.8047436,0.418984425 14.6843729,2.44316451 C14.6843729,2.44316451 24.5095876,24.9949327 27.2811511,31.3523295 C21.170327,21.082173 16.548335,13.6194922 14.01544,13.4665527 C13.4034345,13.429599 11.6596528,17.0624069 11.4930765,17.4431645 L4.44122412,33.5621772 L0.749728804,26.9995189 Z"/>
    <path id="ace-logo-h" d="M-19.0098932,65 C-16.7952903,65 -14.2844139,63.3643245 -13.3988622,61.3401444 L11.4928053,4.44316451 C12.3770893,2.42188209 13.8047436,2.41898443 14.6843729,4.44316451 C14.6843729,4.44316451 23.6176887,25.0002781 28.0843466,35.2788349 C31.8594211,43.9659381 39.4095702,61.3401444 39.4095702,61.3401444 C40.2879403,63.3614268 42.7940525,65 45.0098932,65 L84.9901068,65 C87.2047097,65 88.2817471,63.358279 87.3993607,61.3413958 C87.3993607,61.3413958 67.819427,16.5872617 58.0294602,-5.78980533 L34.6006393,-59.3413958 C33.7166306,-61.3619871 31.2035752,-63 28.9999745,-63 L-2.99997447,-63 C-5.20912757,-63 -7.71825293,-61.358279 -8.60063933,-59.3413958 L-61.3993607,61.3413958 C-62.2833694,63.3619871 -61.2059475,65 -58.9901068,65 L-19.0098932,65 Z"/>
    <filter id="ace-logo-g" width="116.1%" height="118.8%" x="-8%" y="-9.4%" filterUnits="objectBoundingBox">
      <feOffset in="SourceAlpha" result="shadowOffsetOuter1"/>
      <feGaussianBlur in="shadowOffsetOuter1" result="shadowBlurOuter1" stdDeviation="4"/>
      <feColorMatrix in="shadowBlurOuter1" values="0 0 0 0 0   0 0 0 0 0   0 0 0 0 0  0 0 0 0.3 0"/>
    </filter>
  </defs>
  <g fill="none" fill-rule="evenodd" transform="translate(-21 -32)">
    <path fill="#22C7F0" d="M63.9901068,160 C66.2047097,160 68.7155861,158.364325 69.6011378,156.340144 L94.4928053,99.4431645 C95.3770893,97.4218821 96.8047436,97.4189844 97.6843729,99.4431645 L122.40957,156.340144 C123.28794,158.361427 125.794052,160 128.009893,160 L167.990107,160 C170.20471,160 171.281747,158.358279 170.399361,156.341396 L117.600639,35.6586042 C116.716631,33.6380129 114.203575,32 111.999974,32 L80.0000255,32 C77.7908724,32 75.2817471,33.641721 74.3993607,35.6586042 L21.6006393,156.341396 C20.7166306,158.361987 21.7940525,160 24.0098932,160 L63.9901068,160 Z"/>
    <g transform="translate(21 32)">
      <mask id="ace-logo-b" fill="#fff">
        <use xlink:href="#ace-logo-a"/>
      </mask>
      <g fill="#000" mask="url(#ace-logo-b)">
        <use filter="url(#ace-logo-c)" xlink:href="#ace-logo-d"/>
      </g>
    </g>
    <path fill="#77E300" d="M170.520437,70.6176889 C171.343027,69.1623363 170.658129,68 169.002848,68 L162.997152,68 C161.341623,68 159.196775,69.0709662 158.205948,70.3920699 L113.794052,129.60793 C112.803007,130.929324 111.552284,131.104569 110.999999,130 C110.857429,129.679216 97.6843729,99.4431645 97.6843729,99.4431645 C96.8047436,97.4189844 95.3770893,97.4218821 94.4928053,99.4431645 L83.7497288,123.999519 L102.532925,157.391867 C103.344421,158.834527 105.347389,160 107.009477,160 L116.990522,160 C118.663368,160 120.659258,158.833619 121.472495,157.394815 L122.031345,156.40608 L170.520437,70.6176889 Z"/>
    <g transform="translate(83 97)">
      <mask id="ace-logo-f" fill="#fff">
        <use xlink:href="#ace-logo-e"/>
      </mask>
      <g fill="#000" mask="url(#ace-logo-f)">
        <use filter="url(#ace-logo-g)" xlink:href="#ace-logo-h"/>
      </g>
    </g>
  </g>
</svg>
